<?xml version="1.0" encoding="UTF-8" standalone="no"?>
<!DOCTYPE svg PUBLIC "-//W3C//DTD SVG 1.1//EN" "http://www.w3.org/Graphics/SVG/1.1/DTD/svg11.dtd">
<!-- Created with Vectornator (http://vectornator.io/) -->
<svg height="100%" stroke-miterlimit="10" style="fill-rule:nonzero;clip-rule:evenodd;stroke-linecap:round;stroke-linejoin:round;" version="1.1" viewBox="0 0 793.7 538.58" width="100%" xml:space="preserve" xmlns="http://www.w3.org/2000/svg" xmlns:xlink="http://www.w3.org/1999/xlink">
<defs/>
<g id="Untitled">
<g opacity="1">
<path d="M108.946 171.282L159.03 297.593L209.389 171.282L268.005 171.282L180.495 378.773L137.566 378.773L50.3323 171.282L108.946 171.282Z" fill="#6789c6" fill-rule="evenodd" opacity="1" stroke="none"/>
<path d="M731.139 378.772L677.202 378.772L677.202 171.281L731.139 171.281L731.139 378.772Z" fill="#6789c6" fill-rule="evenodd" opacity="1" stroke="none"/>
<path d="M622.991 216.963L558.047 216.963L558.047 251.636L617.213 251.636L617.213 297.317L558.047 297.317L558.047 378.773L504.11 378.773L504.11 171.282L622.991 171.282L622.991 216.963Z" fill="#6789c6" fill-rule="evenodd" opacity="1" stroke="none"/>
<path d="M418.254 224.393C412.38 219.624 406.511 216.094 400.642 213.798C394.769 211.506 389.084 210.358 383.58 210.358C376.607 210.358 370.922 212.009 366.519 215.311C362.116 218.614 359.914 222.927 359.914 228.246C359.914 231.917 361.015 234.944 363.217 237.327C365.418 239.713 368.308 241.777 371.885 243.518C375.462 245.264 379.495 246.777 383.993 248.059C388.486 249.345 392.937 250.721 397.34 252.186C414.951 258.06 427.838 265.903 436.003 275.716C444.164 285.532 448.249 298.328 448.249 314.103C448.249 324.746 446.46 334.377 442.883 342.998C439.306 351.624 434.077 359.006 427.197 365.15C420.317 371.3 411.877 376.068 401.88 379.46C391.879 382.852 380.554 384.552 367.895 384.552C341.657 384.552 317.351 376.756 294.971 361.16L318.086 317.681C326.156 324.836 334.137 330.159 342.027 333.642C349.913 337.129 357.713 338.87 365.418 338.87C374.224 338.87 380.781 336.853 385.094 332.816C389.402 328.783 391.561 324.195 391.561 319.057C391.561 315.939 391.011 313.235 389.909 310.939C388.809 308.647 386.973 306.536 384.406 304.609C381.835 302.684 378.489 300.894 374.361 299.243C370.233 297.593 365.233 295.761 359.364 293.739C352.39 291.538 345.558 289.108 338.862 286.447C332.163 283.79 326.204 280.256 320.976 275.852C315.747 271.45 311.525 265.903 308.316 259.204C305.105 252.509 303.501 244.026 303.501 233.749C303.501 223.477 305.195 214.168 308.592 205.818C311.984 197.472 316.753 190.317 322.901 184.353C329.046 178.393 336.566 173.759 345.467 170.456C354.363 167.154 364.317 165.503 375.325 165.503C385.597 165.503 396.329 166.926 407.522 169.768C418.71 172.615 429.442 176.786 439.719 182.289L418.254 224.393Z" fill="#6789c6" fill-rule="evenodd" opacity="1" stroke="none"/>
</g>
</g>
</svg>
